<?xml version="1.0" encoding="utf-8"?>
<!-- Generator: Adobe Illustrator 23.0.3, SVG Export Plug-In . SVG Version: 6.00 Build 0)  -->
<svg version="1.1" xmlns="http://www.w3.org/2000/svg" xmlns:xlink="http://www.w3.org/1999/xlink" x="0px" y="0px"
	 viewBox="0 0 205 106.7" style="enable-background:new 0 0 205 106.7;" xml:space="preserve">
<style type="text/css">
	.st0{display:none;}
	.st1{display:inline;fill:#FFFFFF;}
	.st2{fill:none;}
	.st3{display:none;enable-background:new    ;}
	.st4{font-family:'AttenRoundNew-Book';}
	.st5{font-size:72px;}
	.st6{letter-spacing:5;}
	.st7{enable-background:new    ;}
	.st8{fill:#FFFFFE;}
	.st9{fill:#E06F06;}
</style>
<g id="Vrstva_2" class="st0">
	<rect x="-35.5" y="-34.7" class="st1" width="291.1" height="169.7"/>
</g>
<g id="Vrstva_1">
	<rect x="-188.4" y="35.9" class="st2" width="442" height="54"/>
	<text transform="matrix(1 0 0 1 202.6133 75.8437)" class="st3 st4 st5 st6">-</text>
	<g class="st7">
		<path class="st8" d="M44.4,47.7c0,1.2-1,2.2-2.5,2.2c-1.1,0-1.9-0.5-2.5-1.9l-5.1-13.1c0,0,0,0-0.1,0H11.5c0,0-0.1,0-0.1,0
			L6.2,48.1c-0.6,1.4-1.5,1.9-2.5,1.9c-1.3,0-2.4-0.9-2.4-2.3c0-0.2,0.1-0.6,0.2-1L18.9,3.6c0.8-2,2.2-3.2,4.1-3.2s3.4,1.2,4.2,3.2
			l17,42.8C44.4,47,44.4,47.3,44.4,47.7z M32.6,30.4C32.6,30.4,32.6,30.4,32.6,30.4L23,5.9h-0.1l-9.7,24.4c0,0,0,0.1,0.1,0.1H32.6z"
			/>
	</g>
	<g class="st7">
		<path class="st9" d="M155.9,68.8c0-14.3,10.6-25.3,24.3-25.3c13.8,0,24.3,11,24.3,25.3s-10.5,25.1-24.3,25.1
			C166.5,93.9,155.9,83.1,155.9,68.8z M199.6,68.8c0-13.1-9.5-20.7-19.4-20.7c-9.8,0-19.4,7.6-19.4,20.7c0,13,9.6,20.6,19.4,20.6
			C190.1,89.4,199.6,81.8,199.6,68.8z"/>
	</g>
	<g class="st7">
		<path class="st9" d="M147.3,59.8c0,1.2-0.9,2.1-2.2,2.1h-14.4c0,0-0.1,0-0.1,0.1v42.4c0,1.3-0.9,2.4-2.4,2.4
			c-1.4,0-2.4-1.1-2.4-2.4V61.9c0,0,0-0.1-0.1-0.1h-14.4c-1.3,0-2.2-0.9-2.2-2.1c0-1.3,1.1-2.3,2.4-2.3h33.5
			C146.2,57.5,147.3,58.5,147.3,59.8z"/>
	</g>
	<g class="st7">
		<path class="st9" d="M99.3,104.4c0,1.2-1,2.2-2.4,2.2c-1.1,0-1.8-0.5-2.4-1.9l-5-13.1c0,0,0,0-0.1,0h-22c0,0-0.1,0-0.1,0l-5,13.2
			c-0.6,1.4-1.4,1.9-2.4,1.9c-1.2,0-2.3-0.9-2.3-2.3c0-0.2,0.1-0.6,0.2-1l16.6-43.1c0.8-2,2.1-3.2,4-3.2c1.9,0,3.2,1.2,4,3.2
			l16.4,42.8C99.3,103.8,99.3,104.1,99.3,104.4z M87.9,87.2C87.9,87.2,87.9,87.1,87.9,87.2l-9.2-24.5h-0.1l-9.3,24.4
			c0,0,0,0.1,0.1,0.1H87.9z"/>
	</g>
	<g class="st7">
		<path class="st9" d="M45.5,60.8l0,43.4c0,1.1-0.7,2.2-1.8,2.5c-1.6,0.4-3-0.8-3-2.3V64.7c0-0.1-0.1-0.1-0.1,0L26.4,89.6
			c-0.7,1.3-1.7,2.4-3.5,2.4c-1.7,0-2.6-1-3.4-2.4L5.2,64.6c0-0.1-0.1,0-0.1,0l0,39.6c0,1.1-0.7,2.2-1.8,2.4
			c-1.6,0.4-2.9-0.8-2.9-2.3V61c0-2.3,1.7-3.9,3.5-3.9c1.6,0,2.9,0.6,3.9,2.4l15.3,27.5c0,0,0.1,0,0.1,0l15.1-27.5
			c0.9-1.7,2.1-2.4,3.7-2.4C43.9,57.1,45.5,58.6,45.5,60.8z"/>
	</g>
	<g class="st7">
		<path class="st8" d="M59,29.9V2.6c0-1.4,1-2.4,2.4-2.4c1.4,0,2.3,1,2.3,2.4v27.2c0,9.8,5.1,16,14.3,16c9,0,14.3-6.2,14.3-15.8V2.6
			c0-1.4,1-2.4,2.3-2.4c1.3,0,2.3,1,2.3,2.4v27.4c0,11.2-6.7,20.2-18.9,20.2C65.6,50.2,59,41.1,59,29.9z"/>
	</g>
	<g class="st7">
		<path class="st8" d="M155.9,38.3c0-14.3,10.6-25.3,24.3-25.3c13.8,0,24.3,11,24.3,25.3s-10.5,25.1-24.3,25.1
			C166.5,63.4,155.9,52.5,155.9,38.3z M199.6,38.3c0-13.1-9.5-20.7-19.4-20.7c-9.8,0-19.4,7.6-19.4,20.7c0,13,9.6,20.6,19.4,20.6
			C190.1,58.9,199.6,51.2,199.6,38.3z"/>
	</g>
	<g class="st7">
		<path class="st8" d="M147.3,2.8c0,1.2-0.9,2.1-2.2,2.1h-14.4c0,0-0.1,0-0.1,0.1v42.4c0,1.3-0.9,2.4-2.4,2.4
			c-1.4,0-2.4-1.1-2.4-2.4V4.9c0,0,0-0.1-0.1-0.1h-14.4c-1.3,0-2.2-0.9-2.2-2.1c0-1.3,1.1-2.3,2.4-2.3h33.5
			C146.2,0.5,147.3,1.5,147.3,2.8z"/>
	</g>
</g>
</svg>
